<svg width="34" height="34" viewBox="0 0 34 34" fill="none" xmlns="http://www.w3.org/2000/svg">
<g filter="url(#filter0_d)">
<path opacity="0.5" d="M25.4853 4.51472L25.1317 4.86827L25.4853 4.51472ZM17 24.04V24.54H17.0006L17 24.04ZM28.04 13L28.54 13.0006V13H28.04ZM10.4787 16.36V15.86H9.27161L10.1252 16.7136L10.4787 16.36ZM12.5394 18.4206L12.1858 18.7743L12.192 18.7803L12.5394 18.4206ZM12.3274 19.2303L12.4541 19.714H12.4541L12.3274 19.2303ZM11.8606 19.0994L12.2203 18.752L12.2142 18.7458L11.8606 19.0994ZM8.98064 16.2194L8.62703 16.5729L8.62709 16.5729L8.98064 16.2194ZM8.98064 15.5406L8.62709 15.1871L8.62703 15.1871L8.98064 15.5406ZM11.8606 12.6606L11.5132 12.3009L11.5071 12.3071L11.8606 12.6606ZM12.5335 12.6665L12.8871 12.3129H12.8871L12.5335 12.6665ZM12.5394 13.3394L12.893 13.693L12.899 13.6867L12.5394 13.3394ZM10.4787 15.4L10.1252 15.0464L9.27161 15.9H10.4787V15.4ZM25.16 10.12L24.66 10.1194V10.1206L25.16 10.12ZM25.0194 10.4594L24.6663 10.1053L24.6658 10.1058L25.0194 10.4594ZM25.0194 9.78064L24.6658 10.1342L24.6663 10.1347L25.0194 9.78064ZM22.1394 6.90064L22.493 6.54703L22.4867 6.541L22.1394 6.90064ZM21.4665 6.90649L21.1129 6.55294V6.55294L21.4665 6.90649ZM21.4606 7.57936L21.1009 7.92677L21.1071 7.93291L21.4606 7.57936ZM23.5213 9.64V10.14H24.7284L23.8748 9.28645L23.5213 9.64ZM23.5213 10.6L23.8748 10.9536L24.7284 10.1H23.5213V10.6ZM21.4606 12.6606L21.107 12.307L21.101 12.3133L21.4606 12.6606ZM22.1394 13.3394L22.4868 13.6991L22.4929 13.6929L22.1394 13.3394ZM17 0.5C10.0964 0.5 4.5 6.09644 4.5 13H5.5C5.5 6.64873 10.6487 1.5 17 1.5V0.5ZM25.8388 4.16116C23.4946 1.81696 20.3152 0.5 17 0.5V1.5C20.05 1.5 22.9751 2.7116 25.1317 4.86827L25.8388 4.16116ZM29.5 13C29.5 9.68479 28.183 6.50537 25.8388 4.16116L25.1317 4.86827C27.2884 7.02494 28.5 9.95001 28.5 13H29.5ZM17 25.5C23.9036 25.5 29.5 19.9036 29.5 13H28.5C28.5 19.3513 23.3513 24.5 17 24.5V25.5ZM4.5 13C4.5 19.9036 10.0964 25.5 17 25.5V24.5C10.6487 24.5 5.5 19.3513 5.5 13H4.5ZM17 23.54C11.1789 23.54 6.46 18.8211 6.46 13H5.46C5.46 19.3734 10.6266 24.54 17 24.54V23.54ZM27.54 12.9994C27.5335 18.8181 22.8181 23.5335 16.9994 23.54L17.0006 24.54C23.3707 24.5329 28.5329 19.3707 28.54 13.0006L27.54 12.9994ZM17 2.46C22.8211 2.46 27.54 7.17892 27.54 13H28.54C28.54 6.62663 23.3734 1.46 17 1.46V2.46ZM6.46 13C6.46 7.17892 11.1789 2.46 17 2.46V1.46C10.6266 1.46 5.46 6.62663 5.46 13H6.46ZM19.88 16.86C20.4212 16.86 20.86 16.4212 20.86 15.88H19.86C19.86 15.869 19.869 15.86 19.88 15.86V16.86ZM10.4787 16.86H19.88V15.86H10.4787V16.86ZM12.8929 18.0671L10.8323 16.0064L10.1252 16.7136L12.1858 18.7742L12.8929 18.0671ZM13.154 19.0141C13.2436 18.6714 13.1415 18.3071 12.8867 18.061L12.192 18.7803C12.1868 18.7753 12.1847 18.7678 12.1865 18.7608L13.154 19.0141ZM12.4541 19.714C12.7967 19.6243 13.0643 19.3567 13.154 19.0141L12.1865 18.7608C12.1884 18.7538 12.1938 18.7484 12.2008 18.7466L12.4541 19.714ZM11.501 19.4467C11.747 19.7015 12.1114 19.8036 12.4541 19.714L12.2008 18.7466C12.2078 18.7447 12.2153 18.7468 12.2203 18.752L11.501 19.4467ZM8.62709 16.5729L11.5071 19.4529L12.2142 18.7458L9.33419 15.8658L8.62709 16.5729ZM8.62703 15.1871C8.24446 15.5698 8.24446 16.1902 8.62703 16.5729L9.33425 15.8659C9.34205 15.8737 9.34205 15.8863 9.33425 15.8941L8.62703 15.1871ZM11.5071 12.3071L8.62709 15.1871L9.33419 15.8942L12.2142 13.0142L11.5071 12.3071ZM12.8871 12.3129C12.509 11.9349 11.8978 11.9296 11.5133 12.301L12.208 13.0203C12.2001 13.0279 12.1877 13.0278 12.18 13.02L12.8871 12.3129ZM12.899 13.6867C13.2704 13.3022 13.2651 12.691 12.8871 12.3129L12.18 13.02C12.1722 13.0123 12.1721 12.9999 12.1797 12.992L12.899 13.6867ZM10.8323 15.7536L12.8929 13.6929L12.1858 12.9858L10.1252 15.0464L10.8323 15.7536ZM19.88 14.9H10.4787V15.9H19.88V14.9ZM20.86 15.88C20.86 15.3388 20.4212 14.9 19.88 14.9V15.9C19.869 15.9 19.86 15.891 19.86 15.88H20.86ZM24.66 10.1206C24.66 10.1148 24.6623 10.1093 24.6663 10.1053L25.3724 10.8134C25.5568 10.6296 25.6603 10.3798 25.66 10.1194L24.66 10.1206ZM24.6663 10.1347C24.6623 10.1307 24.66 10.1252 24.66 10.1194L25.66 10.1206C25.6603 9.86017 25.5568 9.61041 25.3724 9.42656L24.6663 10.1347ZM21.7858 7.25419L24.6658 10.1342L25.3729 9.42709L22.4929 6.54709L21.7858 7.25419ZM21.82 7.26004C21.8123 7.26776 21.7999 7.26787 21.792 7.26028L22.4867 6.541C22.1022 6.1696 21.491 6.17492 21.1129 6.55294L21.82 7.26004ZM21.8203 7.232C21.8279 7.23986 21.8278 7.25233 21.82 7.26004L21.1129 6.55294C20.7349 6.93095 20.7296 7.54218 21.101 7.92672L21.8203 7.232ZM23.8748 9.28645L21.8142 7.22581L21.1071 7.93291L23.1677 9.99356L23.8748 9.28645ZM14.12 10.14H23.5213V9.14H14.12V10.14ZM14.14 10.12C14.14 10.131 14.131 10.14 14.12 10.14V9.14C13.5788 9.14 13.14 9.57876 13.14 10.12H14.14ZM14.12 10.1C14.131 10.1 14.14 10.109 14.14 10.12H13.14C13.14 10.6612 13.5788 11.1 14.12 11.1V10.1ZM23.5213 10.1H14.12V11.1H23.5213V10.1ZM21.8142 13.0142L23.8748 10.9536L23.1677 10.2464L21.1071 12.3071L21.8142 13.0142ZM21.82 12.98C21.8278 12.9877 21.8279 13.0001 21.8203 13.008L21.101 12.3133C20.7296 12.6978 20.7349 13.3091 21.1129 13.6871L21.82 12.98ZM21.792 12.9797C21.7999 12.9721 21.8123 12.9722 21.82 12.98L21.1129 13.6871C21.491 14.0651 22.1022 14.0704 22.4867 13.699L21.792 12.9797ZM24.6658 10.1058L21.7858 12.9858L22.4929 13.6929L25.3729 10.8129L24.6658 10.1058Z" fill="black"/>
</g>
<defs>
<filter id="filter0_d" x="0.5" y="0.5" width="33" height="33" filterUnits="userSpaceOnUse" color-interpolation-filters="sRGB">
<feFlood flood-opacity="0" result="BackgroundImageFix"/>
<feColorMatrix in="SourceAlpha" type="matrix" values="0 0 0 0 0 0 0 0 0 0 0 0 0 0 0 0 0 0 127 0" result="hardAlpha"/>
<feOffset dy="4"/>
<feGaussianBlur stdDeviation="2"/>
<feComposite in2="hardAlpha" operator="out"/>
<feColorMatrix type="matrix" values="0 0 0 0 0 0 0 0 0 0 0 0 0 0 0 0 0 0 0.25 0"/>
<feBlend mode="normal" in2="BackgroundImageFix" result="effect1_dropShadow"/>
<feBlend mode="normal" in="SourceGraphic" in2="effect1_dropShadow" result="shape"/>
</filter>
</defs>
</svg>
